<svg width="335" height="89" viewBox="0 0 335 89" version="1.1" xmlns="http://www.w3.org/2000/svg" xmlns:xlink="http://www.w3.org/1999/xlink">
<title>Group</title>
<desc>Created using Figma</desc>
<g id="Canvas" transform="translate(1061 417)">
<g id="Group">
<g id="logo 1">
<g id="Group">
<g id="Vector">
<use xlink:href="#path0_fill" transform="translate(-929.094 -404.35)" fill="#FFFFFF"/>
</g>
</g>
<g id="Group">
<g id="Group">
<g id="Vector">
<use xlink:href="#path1_fill" transform="translate(-1061 -416.95)" fill="url(#paint1_linear)"/>
</g>
</g>
<g id="Vector">
<use xlink:href="#path2_fill" transform="translate(-1022.99 -417)" fill="url(#paint2_linear)"/>
</g>
<g id="Vector">
<use xlink:href="#path3_fill" transform="translate(-1042.98 -414.038)" fill="url(#paint3_linear)"/>
</g>
</g>
<g id="Vector">
<use xlink:href="#path4_fill" transform="translate(-734.3 -399.531)" fill="#FFFFFF"/>
</g>
<g id="Vector">
<use xlink:href="#path5_fill" transform="translate(-738.1 -402.543)" fill="#FFFFFF"/>
</g>
<g id="Group">
<g id="Vector">
<use xlink:href="#path6_fill" transform="translate(-803.298 -349.434)" fill="#00ACED"/>
</g>
<g id="Vector">
<use xlink:href="#path7_fill" transform="translate(-785.348 -344.866)" fill="#00ACED"/>
</g>
<g id="Vector">
<use xlink:href="#path8_fill" transform="translate(-777.399 -344.766)" fill="#00ACED"/>
</g>
<g id="Vector">
<use xlink:href="#path9_fill" transform="translate(-763.449 -344.615)" fill="#00ACED"/>
</g>
<g id="Vector">
<use xlink:href="#path10_fill" transform="translate(-750.049 -344.816)" fill="#00ACED"/>
</g>
</g>
</g>
</g>
</g>
<defs>
<linearGradient id="paint1_linear" x1="0" y1="0" x2="1" y2="0" gradientUnits="userSpaceOnUse" gradientTransform="matrix(0 -48.9775 48.7835 0 30.228 45.6736)">
<stop offset="0" stop-color="#C6E9FA"/>
<stop offset="1" stop-color="#00A0E3"/>
</linearGradient>
<linearGradient id="paint2_linear" x1="0" y1="0" x2="1" y2="0" gradientUnits="userSpaceOnUse" gradientTransform="matrix(0 -41.2948 41.1313 0 -3.90444 39.9627)">
<stop offset="0" stop-color="#FFF100"/>
<stop offset="1" stop-color="#F48120"/>
</linearGradient>
<linearGradient id="paint3_linear" x1="0" y1="0" x2="1" y2="0" gradientUnits="userSpaceOnUse" gradientTransform="matrix(0 -47.0536 46.8673 0 13.1643 60.0468)">
<stop offset="0" stop-color="#D6DE23"/>
<stop offset="1" stop-color="#00974A"/>
</linearGradient>
<path id="path0_fill" d="M 45.5988 0.301185L 36.599 33.1805L 28.5492 3.61421C 28.2492 2.45967 28.1992 1.8573 26.6993 1.8573L 23.8994 1.8573C 22.4494 1.8573 22.3494 2.45967 22.0494 3.61421L 13.9496 33.1805L 4.99986 0.301185L -6.10335e-06 1.55612L 10.2997 37.9994C 10.5997 39.1038 10.7997 39.7563 12.2497 39.7563L 15.0996 39.7563C 16.5495 39.7563 16.7495 39.1038 17.0495 37.9994L 25.2493 8.48336L 33.4991 37.9994C 33.7991 39.154 33.9491 39.7563 35.449 39.7563L 38.299 39.7563C 39.7989 39.7563 39.9489 39.154 40.2489 37.9994L 50.4986 1.55612L 45.5988 0.301185ZM 69.4981 13.2019C 67.2482 11.947 65.0982 11.7964 62.2983 11.7964C 60.1484 11.7964 57.1484 11.8466 55.1485 12.7501C 50.8486 14.758 49.9986 20.0288 49.9986 24.2955L 49.9986 27.5584C 49.9986 31.8252 50.7986 36.5939 54.5485 38.6018C 56.6484 39.7062 59.3984 40.0575 62.0483 40.0575C 64.9482 40.0575 69.0481 39.7563 71.3481 39.3046L 70.9981 35.59C 67.8481 36.0417 64.4482 36.1923 62.8983 36.1923C 61.4483 36.1923 58.1484 35.9915 56.6485 34.7366C 55.2485 33.5319 54.7985 30.8714 54.7485 27.6588L 69.9481 27.6588C 72.298 27.6588 73.348 26.5042 73.348 24.9983L 73.348 22.1371C 73.398 17.0671 71.498 14.3565 69.4981 13.2019ZM 68.6481 23.894L 54.7485 23.894C 54.7485 20.4805 55.2985 18.1213 56.7484 16.7659C 58.0984 15.511 60.7983 15.511 62.1483 15.511C 63.8983 15.511 65.6982 15.6616 66.8482 16.6153C 68.0981 17.7197 68.6481 19.7276 68.6481 22.7896C 68.6481 23.6932 68.6481 23.0908 68.6481 23.894ZM 94.9974 12.9007C 92.5475 11.7964 89.4976 11.7964 87.2976 11.7964C 85.9977 11.7964 83.3977 12.0474 81.1978 12.3988L 81.1978 1.91488e-07L 76.4479 1.91488e-07L 76.4479 33.1805C 76.4479 39.0536 81.3478 40.1579 87.8976 40.1579C 95.8974 40.1579 99.7973 38.2504 99.7973 26.5042L 99.7973 23.894C 99.8473 19.6272 99.3473 14.8584 94.9974 12.9007ZM 95.0474 26.8556C 95.0474 34.8872 93.8474 36.4433 88.3976 36.4433C 85.9977 36.4433 84.0477 36.2425 82.9477 35.59C 81.5978 34.7868 81.1978 33.4817 81.1978 31.524L 81.1978 16.3644C 83.3977 15.8624 86.1976 15.7118 87.4976 15.7118C 93.5474 15.7118 94.9974 16.8161 94.9974 23.5426L 94.9974 26.8556L 95.0474 26.8556ZM 115.047 36.1923C 113.597 36.1923 110.497 36.1923 109.247 34.9876C 107.797 33.6323 107.347 31.2228 107.347 27.9098L 107.347 23.9442C 107.347 20.6311 107.747 18.2217 109.247 16.8663C 110.497 15.7118 113.547 15.6616 115.047 15.6616C 116.597 15.6616 118.797 15.762 121.947 16.264C 121.947 16.264 122.297 12.6497 122.297 12.5494C 119.997 12.1478 116.347 11.7964 114.197 11.7964C 112.147 11.7964 109.247 11.9972 107.147 13.1015C 103.347 15.1094 102.447 20.0288 102.447 24.2955L 102.447 27.5082C 102.447 31.775 103.347 36.6943 107.147 38.7022C 109.247 39.8065 112.147 40.0073 114.197 40.0073C 116.347 40.0073 120.497 39.7062 122.847 39.2544L 122.497 35.5398C 119.297 36.0919 116.547 36.1923 115.047 36.1923ZM 143.746 12.6999C 141.746 11.7964 138.946 11.7964 136.796 11.7964C 134.646 11.7964 131.846 11.7964 129.846 12.6999C 125.547 14.7078 125.047 20.0288 125.047 24.2955L 125.047 27.5584C 125.047 31.8252 125.497 37.2465 129.846 39.154C 131.796 40.0575 134.646 40.0575 136.796 40.0575C 138.946 40.0575 141.746 40.0575 143.746 39.154C 148.046 37.1461 148.546 31.8252 148.546 27.5584L 148.546 24.2955C 148.546 20.0288 148.046 14.7078 143.746 12.6999ZM 143.746 27.96C 143.746 31.273 143.646 33.833 142.196 35.1884C 140.946 36.3931 138.246 36.3429 136.796 36.3931C 135.296 36.3931 132.646 36.3931 131.396 35.1884C 129.996 33.833 129.896 31.273 129.896 27.96L 129.896 23.9442C 129.896 20.6311 129.946 18.0711 131.396 16.7157C 132.646 15.5612 135.346 15.511 136.796 15.511C 138.246 15.511 140.946 15.5612 142.196 16.7157C 143.596 18.0711 143.746 20.6311 143.746 23.9442L 143.746 27.96ZM 179.995 11.7964C 176.145 11.7964 171.445 12.9007 169.895 13.3023C 168.145 12.1478 165.795 11.7964 163.146 11.7964C 159.996 11.7964 155.996 12.3486 153.846 12.7501C 153.146 12.9007 151.546 13.3023 151.546 15.511L 151.546 39.7563L 156.296 39.7563L 156.296 16.5149C 157.996 16.1636 160.346 15.7118 162.346 15.7118C 166.945 15.7118 168.395 17.3181 168.395 21.5849L 168.395 39.7563L 173.145 39.7563L 173.145 21.1833C 173.145 19.326 172.895 17.8201 172.395 16.5651C 174.295 16.1636 176.845 15.6616 179.195 15.6616C 183.745 15.6616 185.245 17.2679 185.245 21.5347L 185.245 39.7061L 189.995 39.7061L 189.995 21.1833C 189.945 13.2521 185.645 11.7964 179.995 11.7964Z"/>
<path id="path1_fill" fill-rule="evenodd" d="M 103.556 0L 78.107 0C 73.9571 0 69.6073 3.36323 68.3573 7.57981L 54.6077 55.2171L 40.858 7.57981C 39.6581 3.41342 35.3082 0 31.1583 0L 5.65901 0C 1.50913 0 -0.890808 3.41342 0.309159 7.57981L 14.0588 55.2171C 15.2588 59.3835 19.6086 62.797 23.8085 62.797L 49.2578 62.797C 51.9577 62.797 53.9077 61.3412 54.6077 59.1827C 55.3077 61.3412 57.2576 62.797 59.9575 62.797L 85.4068 62.797C 89.5567 62.797 93.9066 59.4337 95.1066 55.2171L 108.856 7.57981C 110.106 3.41342 107.706 0 103.556 0Z"/>
<path id="path2_fill" fill-rule="evenodd" d="M 5.99984 0.0501974C 3.94989 0.0501974 1.64995 1.25494 0 3.01184C 1.34996 4.26678 2.39993 5.8731 2.84992 7.57981L 16.5995 55.2171L 30.3492 7.57981C 30.8992 5.7225 31.8491 4.21658 33.3491 2.91145C 31.6991 1.30513 29.7492 -7.47999e-10 27.7992 -7.47999e-10L 5.99984 -7.47999e-10L 5.99984 0.0501974Z"/>
<path id="path3_fill" fill-rule="evenodd" d="M 72.8832 52.3559L 56.2336 4.71856C 55.7337 3.01184 54.7837 1.25494 53.3837 9.5744e-08C 51.8338 1.30513 50.8838 2.96165 50.3838 4.66836L 36.5842 52.3057L 36.5842 52.3559L 22.8346 4.71856C 22.3346 3.01184 21.3346 1.35533 19.9346 0.100395C 18.5347 1.35533 17.4847 3.01184 16.9847 4.71856L 0.335166 52.3559C -0.964798 56.5223 1.63513 59.9357 6.08501 59.9357L 31.2343 59.9357C 33.9342 59.9357 35.8842 58.5302 36.5842 56.3717C 37.2842 58.5302 39.2341 59.9357 41.934 59.9357L 67.0833 59.9357C 71.5832 59.8855 74.1332 56.5223 72.8832 52.3559Z"/>
<path id="path4_fill" d="M 5.09985 5.8731C 5.09985 5.92329 5.09985 5.92329 5.09985 5.97349C 5.09985 6.02369 5.04987 6.02369 4.99988 6.02369C 4.94988 6.02369 4.84988 6.07389 4.74988 6.07389C 4.64989 6.07389 4.49988 6.07389 4.29988 6.07389C 4.14989 6.07389 3.9999 6.07389 3.8999 6.07389C 3.7999 6.07389 3.69991 6.02369 3.64991 6.02369C 3.59991 6.02369 3.54992 5.97349 3.49992 5.92329C 3.44992 5.8731 3.44991 5.8229 3.39991 5.7225L 3.0999 4.76875C 2.99991 4.41737 2.84993 4.16638 2.64993 4.01579C 2.49994 3.8652 2.24994 3.815 1.89995 3.815L 1.49997 3.815L 1.49997 5.8229C 1.49997 5.92329 1.44995 5.97349 1.34995 6.02369C 1.24995 6.07389 1.04998 6.07389 0.749992 6.07389C 0.45 6.07389 0.249999 6.07389 0.150002 6.02369C 0.0500047 5.97349 1.22067e-05 5.92329 1.22067e-05 5.8229L 1.22067e-05 0.702763C 1.22067e-05 0.501973 0.0500047 0.351381 0.150002 0.200789C 0.249999 0.0501966 0.449994 3.82976e-07 0.649988 3.82976e-07L 2.34992 3.82976e-07C 2.74991 3.82976e-07 3.09992 0.0501982 3.39991 0.100396C 3.69991 0.150593 3.94989 0.250987 4.19988 0.401579C 4.39987 0.552171 4.59987 0.702763 4.69987 0.95375C 4.79986 1.15454 4.84986 1.40553 4.84986 1.70671C 4.84986 2.15849 4.69987 2.50987 4.44987 2.76086C 4.19988 3.01184 3.8499 3.21263 3.39991 3.31303C 3.64991 3.41342 3.8499 3.51382 4.04989 3.71461C 4.24988 3.9154 4.44987 4.16638 4.59986 4.51777L 4.94986 5.42132C 5.04986 5.67231 5.09985 5.7727 5.09985 5.8731ZM 3.24992 1.8573C 3.24992 1.75691 3.24991 1.65651 3.19991 1.55612C 3.14991 1.45572 3.09992 1.35533 3.04992 1.30513C 2.94992 1.20474 2.84992 1.15454 2.69992 1.15454C 2.54992 1.10434 2.39993 1.10434 2.19993 1.10434L 1.49997 1.10434L 1.49997 2.81105L 2.14995 2.81105C 2.54994 2.81105 2.84993 2.71066 2.99993 2.56007C 3.14993 2.30908 3.24992 2.10829 3.24992 1.8573Z"/>
<path id="path5_fill" d="M 6.04985 12.1478C 2.69994 12.1478 -6.10335e-06 9.43711 -6.10335e-06 6.07389C -6.10335e-06 2.71066 2.69994 3.82976e-07 6.04985 3.82976e-07C 9.39975 3.82976e-07 12.0997 2.71066 12.0997 6.07389C 12.0997 9.43711 9.39975 12.1478 6.04985 12.1478ZM 6.04985 1.30513C 3.44992 1.30513 1.29998 3.46362 1.29998 6.07389C 1.29998 8.68415 3.44992 10.8426 6.04985 10.8426C 8.64978 10.8426 10.7997 8.68415 10.7997 6.07389C 10.7997 3.46362 8.69977 1.30513 6.04985 1.30513Z"/>
<path id="path6_fill" d="M 15.6496 7.7806L 15.6496 14.0051C 14.4996 16.1134 12.0497 17.2177 8.29977 17.2679C 2.99992 17.0169 0.250005 14.1055 1.22067e-05 8.68415C 0.250005 3.16244 2.94993 0.250987 7.99979 0C 11.8497 0.0501974 14.3996 1.55612 15.5996 4.51777L 13.1496 5.42132C 12.3497 3.31303 10.5997 2.20868 7.99979 2.20868C 4.74988 2.56006 2.94991 4.71856 2.69992 8.68415C 2.89991 12.8003 4.79986 14.9588 8.34976 15.26C 10.6997 15.2098 12.3497 14.5071 13.3496 13.2019L 13.3496 9.93909L 7.79979 9.93909L 7.79979 7.7806L 15.6496 7.7806Z"/>
<path id="path7_fill" d="M 2.44994 6.12408L 2.44994 12.3486L -6.10335e-06 12.3486L -6.10335e-06 0.301183L 2.44994 0.301183L 2.44994 2.61027C 3.04992 0.903555 4.09988 0.0502005 5.64983 3.06381e-06C 6.34981 3.06381e-06 7.09981 0.200787 7.84979 0.652563L 6.94982 2.86125C 6.49983 2.45967 5.94983 2.30908 5.24985 2.30908C 3.4499 2.40947 2.49994 3.71461 2.44994 6.12408Z"/>
<path id="path8_fill" d="M 6.19982 1.5319e-06C 9.99971 0.150594 11.9997 2.30908 12.1497 6.37507C 12.0497 10.4411 9.99972 12.4992 6.04983 12.5995C 2.24993 12.3988 0.249999 10.3407 6.10335e-06 6.47546C 0.200001 2.30908 2.24993 0.150594 6.19982 1.5319e-06ZM 6.14983 10.7924C 8.44977 10.7422 9.59974 9.28652 9.64974 6.37507C 9.54974 3.61421 8.34977 2.10829 6.14983 1.9577C 3.7999 2.00789 2.59992 3.46362 2.54992 6.37507C 2.59992 9.23632 3.7999 10.692 6.14983 10.7924Z"/>
<path id="path9_fill" d="M 10.9497 12.0976L 8.49975 12.0976L 8.49975 10.0395C 7.64978 11.5454 6.29982 12.3486 4.49986 12.3988C 1.49995 12.3988 -1.22067e-05 10.7924 -1.22067e-05 7.63001L -1.22067e-05 3.06381e-06L 2.44993 3.06381e-06L 2.44993 7.37902C 2.44993 9.48731 3.39991 10.5917 5.29986 10.5917C 7.24981 10.4411 8.29976 9.23632 8.49975 7.07783L 8.49975 0.0501959L 10.9497 0.0501959L 10.9497 12.0976Z"/>
<path id="path10_fill" d="M 2.54993 10.692L 2.54993 16.8161L 1.22067e-05 16.8161L 1.22067e-05 0.250985L 2.54993 0.250985L 2.54993 2.30908C 3.24991 0.80316 4.59988 -1.5319e-06 6.64982 -1.5319e-06C 9.74974 0.150591 11.3997 2.25889 11.5497 6.22448C 11.4997 10.4411 9.84973 12.5494 6.54982 12.5995C 4.69987 12.5995 3.34991 11.947 2.54993 10.692ZM 2.44993 5.62211L 2.44993 7.02763C 2.49993 9.48731 3.5999 10.7924 5.69984 10.8928C 7.89978 10.8928 8.94975 9.38691 8.94975 6.37507C 8.89975 3.51382 7.79977 2.10829 5.59983 2.0581C 3.64989 2.10829 2.59992 3.31303 2.44993 5.62211Z"/>
</defs>
</svg>
