<svg width="335" height="89" viewBox="0 0 335 89" xmlns="http://www.w3.org/2000/svg" xmlns:xlink="http://www.w3.org/1999/xlink"><title>Group</title><desc>Created using Figma</desc><use xlink:href="#a" transform="translate(131.906 12.65)" fill="#FFF"/><use xlink:href="#b" transform="translate(0 .05)" fill="url(#c)"/><use xlink:href="#d" transform="translate(38.01)" fill="url(#e)"/><use xlink:href="#f" transform="translate(18.02 2.962)" fill="url(#g)"/><use xlink:href="#h" transform="translate(326.7 17.469)" fill="#FFF"/><use xlink:href="#i" transform="translate(322.9 14.457)" fill="#FFF"/><g fill="#00ACED"><use xlink:href="#j" transform="translate(257.702 67.566)"/><use xlink:href="#k" transform="translate(275.652 72.134)"/><use xlink:href="#l" transform="translate(283.601 72.234)"/><use xlink:href="#m" transform="translate(297.551 72.385)"/><use xlink:href="#n" transform="translate(310.951 72.184)"/></g><defs><linearGradient id="c" x2="1" gradientUnits="userSpaceOnUse" gradientTransform="matrix(0 -48.9775 48.7835 0 30.228 45.674)"><stop offset="0" stop-color="#C6E9FA"/><stop offset="1" stop-color="#00A0E3"/></linearGradient><linearGradient id="e" x2="1" gradientUnits="userSpaceOnUse" gradientTransform="matrix(0 -41.2948 41.1313 0 -3.904 39.963)"><stop offset="0" stop-color="#FFF100"/><stop offset="1" stop-color="#F48120"/></linearGradient><linearGradient id="g" x2="1" gradientUnits="userSpaceOnUse" gradientTransform="matrix(0 -47.0536 46.8673 0 13.164 60.047)"><stop offset="0" stop-color="#D6DE23"/><stop offset="1" stop-color="#00974A"/></linearGradient><path id="a" d="M45.599.301l-9 32.88-8.05-29.567c-.3-1.154-.35-1.757-1.85-1.757h-2.8c-1.45 0-1.55.603-1.85 1.757l-8.1 29.567L5 .3 0 1.556 10.3 38c.3 1.105.5 1.757 1.95 1.757h2.85c1.45 0 1.65-.652 1.95-1.757l8.2-29.516L33.5 38c.3 1.155.45 1.757 1.949 1.757h2.85c1.5 0 1.65-.602 1.95-1.757l10.25-36.443-4.9-1.255zm23.9 12.9c-2.25-1.254-4.4-1.405-7.2-1.405-2.15 0-5.15.05-7.15.954-4.3 2.008-5.15 7.279-5.15 11.546v3.262c0 4.267.8 9.036 4.55 11.044 2.1 1.104 4.85 1.456 7.5 1.456 2.9 0 7-.302 9.3-.753l-.35-3.715c-3.15.452-6.55.602-8.1.602-1.45 0-4.75-.2-6.25-1.455-1.4-1.205-1.85-3.866-1.9-7.078h15.2c2.349 0 3.399-1.155 3.399-2.66v-2.862c.05-5.07-1.85-7.78-3.85-8.935zm-.85 10.693h-13.9c0-3.413.55-5.773 2-7.128 1.35-1.255 4.05-1.255 5.4-1.255 1.75 0 3.55.15 4.7 1.104 1.25 1.105 1.8 3.113 1.8 6.175v1.104zm26.348-10.993c-2.45-1.105-5.5-1.105-7.7-1.105-1.3 0-3.9.251-6.1.603V0h-4.75v33.18c0 5.874 4.9 6.978 11.45 6.978 8 0 11.9-1.908 11.9-13.654v-2.61c.05-4.267-.45-9.036-4.8-10.993zm.05 13.955c0 8.031-1.2 9.587-6.65 9.587-2.4 0-4.35-.2-5.45-.853-1.35-.803-1.75-2.108-1.75-4.066v-15.16c2.2-.502 5-.652 6.3-.652 6.05 0 7.5 1.104 7.5 7.83v3.314h.05zm20 9.336c-1.45 0-4.55 0-5.8-1.204-1.45-1.356-1.9-3.765-1.9-7.078v-3.966c0-3.313.4-5.722 1.9-7.078 1.25-1.154 4.3-1.204 5.8-1.204 1.55 0 3.75.1 6.9.602 0 0 .35-3.614.35-3.715-2.3-.401-5.95-.753-8.1-.753-2.05 0-4.95.201-7.05 1.306-3.8 2.007-4.7 6.927-4.7 11.194v3.212c0 4.267.9 9.186 4.7 11.194 2.1 1.105 5 1.305 7.05 1.305 2.15 0 6.3-.3 8.65-.753l-.35-3.714c-3.2.552-5.95.652-7.45.652zM143.746 12.7c-2-.904-4.8-.904-6.95-.904-2.15 0-4.95 0-6.95.904-4.299 2.008-4.799 7.329-4.799 11.596v3.262c0 4.267.45 9.688 4.799 11.596 1.95.903 4.8.903 6.95.903 2.15 0 4.95 0 6.95-.903 4.3-2.008 4.8-7.329 4.8-11.596v-3.262c0-4.267-.5-9.588-4.8-11.596zm0 15.26c0 3.313-.1 5.873-1.55 7.228-1.25 1.205-3.95 1.155-5.4 1.205-1.5 0-4.15 0-5.4-1.205-1.4-1.355-1.5-3.915-1.5-7.228v-4.016c0-3.313.05-5.873 1.5-7.228 1.25-1.155 3.95-1.205 5.4-1.205 1.45 0 4.15.05 5.4 1.205 1.4 1.355 1.55 3.915 1.55 7.228v4.016zm36.249-16.164c-3.85 0-8.55 1.105-10.1 1.506-1.75-1.154-4.1-1.506-6.749-1.506-3.15 0-7.15.553-9.3.954-.7.15-2.3.552-2.3 2.761v24.245h4.75V16.515c1.7-.351 4.05-.803 6.05-.803 4.599 0 6.049 1.606 6.049 5.873v18.171h4.75V21.183c0-1.857-.25-3.363-.75-4.618 1.9-.401 4.45-.903 6.8-.903 4.55 0 6.05 1.606 6.05 5.873v18.171h4.75V21.183c-.05-7.93-4.35-9.387-10-9.387z"/><path id="b" fill-rule="evenodd" d="M103.556 0H78.107c-4.15 0-8.5 3.363-9.75 7.58l-13.75 47.637L40.859 7.58c-1.2-4.167-5.55-7.58-9.7-7.58H5.66C1.509 0-.891 3.413.309 7.58l13.75 47.637c1.2 4.166 5.55 7.58 9.75 7.58h25.449c2.7 0 4.65-1.456 5.35-3.614.7 2.158 2.65 3.614 5.35 3.614h25.449c4.15 0 8.5-3.363 9.7-7.58L108.856 7.58c1.25-4.167-1.15-7.58-5.3-7.58z"/><path id="d" fill-rule="evenodd" d="M6 .05c-2.05 0-4.35 1.205-6 2.962C1.35 4.267 2.4 5.873 2.85 7.58L16.6 55.217 30.35 7.58c.55-1.857 1.5-3.363 3-4.669C31.7 1.305 29.75 0 27.8 0H6v.05z"/><path id="f" fill-rule="evenodd" d="M72.883 52.356L56.233 4.719c-.5-1.707-1.45-3.464-2.85-4.719-1.55 1.305-2.5 2.962-3 4.668L36.585 52.306v.05L22.834 4.719c-.5-1.707-1.5-3.364-2.9-4.619-1.4 1.255-2.45 2.912-2.95 4.619L.336 52.356c-1.3 4.166 1.3 7.58 5.75 7.58h25.15c2.7 0 4.65-1.406 5.35-3.564.7 2.158 2.65 3.564 5.349 3.564h25.15c4.5-.05 7.05-3.414 5.8-7.58z"/><path id="h" d="M5.1 5.873v.1c0 .05-.05.05-.1.05s-.15.05-.25.05H3.9c-.1 0-.2-.05-.25-.05-.05 0-.1-.05-.15-.1-.05-.05-.05-.1-.1-.2l-.3-.954c-.1-.352-.25-.603-.45-.753-.15-.15-.4-.201-.75-.201h-.4v2.008c0 .1-.05.15-.15.2-.1.05-.3.05-.6.05s-.5 0-.6-.05c-.1-.05-.15-.1-.15-.2V.703C0 .502.05.35.15.2c.1-.15.3-.2.5-.2h1.7c.4 0 .75.05 1.05.1.3.05.55.151.8.302.2.15.4.3.5.552.1.2.15.452.15.753 0 .451-.15.803-.4 1.054-.25.25-.6.452-1.05.552.25.1.45.2.65.402.2.2.4.451.55.803l.35.903c.1.251.15.352.15.452zM3.25 1.857c0-.1 0-.2-.05-.3a1.09 1.09 0 0 0-.15-.252c-.1-.1-.2-.15-.35-.15-.15-.05-.3-.05-.5-.05h-.7V2.81h.65c.4 0 .7-.1.85-.25.15-.252.25-.453.25-.704z"/><path id="i" d="M6.05 12.148C2.7 12.148 0 9.438 0 6.074S2.7 0 6.05 0C9.4 0 12.1 2.71 12.1 6.074c0 3.363-2.7 6.074-6.05 6.074zm0-10.843c-2.6 0-4.75 2.159-4.75 4.769 0 2.61 2.15 4.769 4.75 4.769s4.75-2.159 4.75-4.77c0-2.61-2.1-4.768-4.75-4.768z"/><path id="j" d="M15.65 7.78v6.225c-1.15 2.108-3.6 3.213-7.35 3.263C3 17.017.25 14.105 0 8.684.25 3.162 2.95.251 8 0c3.85.05 6.4 1.556 7.6 4.518l-2.45.903C12.35 3.313 10.6 2.21 8 2.21c-3.25.351-5.05 2.51-5.3 6.475.2 4.116 2.1 6.275 5.65 6.576 2.35-.05 4-.753 5-2.058V9.939H7.8V7.781h7.85z"/><path id="k" d="M2.45 6.124v6.225H0V.3h2.45v2.31C3.05.903 4.1.05 5.65 0c.7 0 1.45.2 2.2.653l-.9 2.208c-.45-.401-1-.552-1.7-.552-1.8.1-2.75 1.406-2.8 3.815z"/><path id="l" d="M6.2 0c3.8.15 5.8 2.31 5.95 6.375-.1 4.066-2.15 6.124-6.1 6.225-3.8-.201-5.8-2.26-6.05-6.125C.2 2.31 2.25.151 6.2 0zm-.05 10.792c2.3-.05 3.45-1.505 3.5-4.417-.1-2.76-1.3-4.267-3.5-4.417-2.35.05-3.55 1.506-3.6 4.417.05 2.861 1.25 4.317 3.6 4.417z"/><path id="m" d="M10.95 12.098H8.5v-2.059c-.85 1.506-2.2 2.31-4 2.36-3 0-4.5-1.607-4.5-4.769V0h2.45v7.379c0 2.108.95 3.213 2.85 3.213 1.95-.15 3-1.356 3.2-3.514V.05h2.45v12.048z"/><path id="n" d="M2.55 10.692v6.124H0V.251h2.55v2.058C3.25.803 4.6 0 6.65 0c3.1.15 4.75 2.259 4.9 6.224-.05 4.217-1.7 6.325-5 6.376-1.85 0-3.2-.653-4-1.908zm-.1-5.07v1.406c.05 2.46 1.15 3.764 3.25 3.865 2.2 0 3.25-1.506 3.25-4.518C8.9 3.514 7.8 2.108 5.6 2.058c-1.95.05-3 1.255-3.15 3.564z"/></defs></svg>